<svg xmlns="http://www.w3.org/2000/svg" viewBox="0 0 73 73"><defs><style>.f47e58bb-50e2-4a67-b66d-9ba7d30c5683{isolation:isolate;}.a2965d0e-fb89-4543-8f0a-a2a5370f55d1{fill:none;stroke:#000;}.ad9e63fb-d84b-4ac3-ac9e-e550ec3ab903{fill:#fff;}.a3514f89-566d-4f17-bb84-c838500ca630{fill:#0cc;}</style></defs><g id="adec177b-264f-4eb7-ba0d-ea21e49d476e" data-name="Layer 2"><g id="f062e400-e5f9-4758-b432-6f341a8210d7" data-name="Ellipse 2" class="f47e58bb-50e2-4a67-b66d-9ba7d30c5683"><g id="ec9398f9-7b9f-4791-9841-a1d735d881ea" data-name="Ellipse 2"><circle cx="36.5" cy="36.5" r="36"/><circle class="a2965d0e-fb89-4543-8f0a-a2a5370f55d1" cx="36.5" cy="36.5" r="36"/></g></g><g id="aa18d7e6-99ee-4379-943e-4506895ef079" data-name="K"><path class="ad9e63fb-d84b-4ac3-ac9e-e550ec3ab903" d="M21.739,12.593a5.131,5.131,0,0,1,2.97.858,3.119,3.119,0,0,1,1.254,2.772V34.438L45.3,13.649a3.153,3.153,0,0,1,2.673-1.056,3.926,3.926,0,0,1,2.607,1.254,4.28,4.28,0,0,1,1.287,2.607,3.061,3.061,0,0,1-.957,2.607L36.259,34.307l16.17,19.272a3.624,3.624,0,0,1,1.056,3.035,4.311,4.311,0,0,1-1.65,2.641,4.716,4.716,0,0,1-2.9,1.089,3.366,3.366,0,0,1-2.772-1.486L30.781,39.652,25.963,44.6V56.681a3.118,3.118,0,0,1-1.254,2.772,5.131,5.131,0,0,1-2.97.858,5.126,5.126,0,0,1-2.97-.858,3.116,3.116,0,0,1-1.254-2.772V16.223a3.117,3.117,0,0,1,1.254-2.772A5.126,5.126,0,0,1,21.739,12.593Z"/></g><g id="f19ebfcd-0eee-43d3-836b-192595e49513" data-name="Ellipse 1" class="f47e58bb-50e2-4a67-b66d-9ba7d30c5683"><g id="bd30a687-2b92-4a1a-955c-8eec518ee93d" data-name="Ellipse 1"><path class="a3514f89-566d-4f17-bb84-c838500ca630" d="M59.637,15.474a3.6,3.6,0,1,0,3.6,3.6A3.6,3.6,0,0,0,59.637,15.474Z"/></g></g></g></svg>